<?xml version="1.0" encoding="UTF-8"?>
<svg id="Layer_1" data-name="Layer 1" xmlns="http://www.w3.org/2000/svg" viewBox="0 0 1000 1000">
  <defs>
    <style>
      .cls-1 {
        fill: #2b3c8e;
      }

      .cls-1, .cls-2, .cls-3 {
        stroke-width: 0px;
      }

      .cls-2 {
        fill: #0087d4;
      }

      .cls-2, .cls-3 {
        fill-rule: evenodd;
      }

      .cls-3 {
        fill: #00b3d4;
      }
    </style>
  </defs>
  <polygon class="cls-3" points="737.96 653.81 746.1 623.58 776.33 615.44 746.1 607.31 737.96 577.08 729.83 607.31 699.6 615.44 729.83 623.58 737.96 653.81"/>
  <polygon class="cls-2" points="651.68 719.98 663.92 674.52 709.39 662.27 663.92 650.03 651.68 604.57 639.44 650.03 593.98 662.27 639.44 674.52 651.68 719.98"/>
  <polygon class="cls-3" points="177.04 313.3 192.37 256.39 249.27 241.07 192.37 225.74 177.04 168.83 161.72 225.74 104.81 241.07 161.72 256.39 177.04 313.3"/>
  <path class="cls-1" d="m259.25,448.63c10.07-35.26,19.85-72.62,31.58-109.36,6.67-20.9,19.56-38.45,38.56-50.63,29.89-19.17,61.41-8.93,75.19,23.92,8.77,20.93,8.52,42.73,8.02,64.7-.24,10.59-.04,21.2-.04,33.67,7.55-15.76,14.15-30.16,21.28-44.28,12.55-24.86,31.63-42,59.21-48.69,27.83-6.75,50.27,7.15,57.07,34.88,5.22,21.3,1.5,42.37-1.18,63.41-7.75,60.97-13.66,122.32-13.71,183.83-.04,53.6,15.94,104.79,51.83,145.58,19.07,21.68,45.96,44.53,74.01,53.1,20.68,6.32,42.96,7.2,64.31,4.31,13.26-1.79,26.04-6.27,38.35-11.39,5.78-2.4,12.53-4.57,17.81-7.94,4.16-2.65,4.02-1.46,1.68-5.76-1.06-1.96-2.92-3.81-4.35-5.52-12.21-14.68-20.61-31.16-23.26-50.22-4.69-33.73,11.14-58.59,43.66-68.95,20.1-6.4,40.03-6.08,59.59,1.96,28.13,11.55,39.94,40.13,25.17,66.72-4.44,7.99-10.19,15.17-16.16,22.06-5.59,6.45-10.98,13.82-17.26,19.54-1.25,1.14-2.5,2.28-3.76,3.42-2.44,2.22-7.44,5.03-4.65,8.9,1.82,2.52,6.04,3.27,8.68,4.58,11.8,5.84,23.84,11.18,36.07,16.05,4.57,1.82,6.97,4.46,7.93,9.53.84,4.43-.07,10-2.82,13.67-8.28,12.08-23.59,6.55-34.91,3.16-14.31-4.28-28.09-10.37-40.52-18.7-8.86-5.94-15.34-5.27-24.3-.32-33.58,18.53-69.42,29.84-108.27,26.85-77.87-5.98-136.69-40.6-172.06-112.75-18.6-37.94-24.24-77.83-25.88-118.91-2.49-62.07,4.79-123.56,11.51-185.1,1.77-16.19,2.64-32.8,1.06-48.93-1.53-15.63-13.1-19.11-25.78-9.37-15.51,11.92-22.55,29.51-30.25,46.52-17.07,37.7-23.85,78.15-30.72,118.5-2.32,13.63-3.89,27.44-4.71,41.24-.63,10.58-6.44,16.01-15.51,18.3-5.46,1.38-11.54,1.53-17.17.83-11.74-1.46-17.08-7.88-16.86-19.5.76-40.61,2.18-81.2,2.41-121.81.19-34.12-.61-68.25-1.71-102.35-.29-8.95-2.69-19.53-12.8-21.9-10.17-2.39-15.84,6.72-21.16,13.99-13.77,18.82-21.47,40.49-26.82,62.74-14.09,58.55-27.2,117.34-40.75,176.03-2.97,12.87-6.4,25.64-9.09,38.56-1.66,7.96-6.44,12.84-13.74,14.59-6.79,1.63-14.02,2.68-20.95,2.28-15.05-.86-20.75-7.3-19.72-22.35,5.28-76.84,10.81-153.65,16.32-230.47,1.59-22.18,3.48-44.34,5.08-66.52.96-13.33,6.77-19.42,20.1-19.21,16,.26,29.06,6.02,28.09,27.15-1.88,41.2-2.56,82.46-3.7,123.69-.14,5.1-.02,10.21-.02,12.68Zm566.41,303.45c11.14-10.94,21.97-22.44,25.36-37.85,1.7-7.71-.05-17.29-3.3-24.69-3.73-8.48-13.48-8.6-20.31-2.11-14.92,14.18-16.15,48.46-1.75,64.65Z"/>
</svg>