<?xml version="1.0" encoding="UTF-8"?>
<svg id="Layer_1" data-name="Layer 1" xmlns="http://www.w3.org/2000/svg" viewBox="0 0 1200 415">
  <defs>
    <style>
      .cls-1 {
        fill: #2b3c8e;
      }

      .cls-1, .cls-2, .cls-3 {
        stroke-width: 0px;
      }

      .cls-2 {
        fill: #0087d4;
      }

      .cls-2, .cls-3 {
        fill-rule: evenodd;
      }

      .cls-3 {
        fill: #00b3d4;
      }
    </style>
  </defs>
  <polygon class="cls-3" points="530.32 314.14 532.8 304.92 542.02 302.43 532.8 299.95 530.32 290.73 527.84 299.95 518.62 302.43 527.84 304.92 530.32 314.14"/>
  <polygon class="cls-2" points="504 334.32 507.73 320.45 521.6 316.72 507.73 312.99 504 299.12 500.27 312.99 486.4 316.72 500.27 320.45 504 334.32"/>
  <polygon class="cls-3" points="716.93 313.27 719.78 302.65 730.4 299.79 719.78 296.93 716.93 286.32 714.07 296.93 703.45 299.79 714.07 302.65 716.93 313.27"/>
  <g>
    <polygon class="cls-3" points="52.66 127.69 58.61 105.6 80.69 99.66 58.61 93.71 52.66 71.63 46.72 93.71 24.64 99.66 46.72 105.6 52.66 127.69"/>
    <polygon class="cls-2" points="804.2 146.68 809.05 128.68 827.04 123.84 809.05 118.99 804.2 100.99 799.35 118.99 781.36 123.84 799.35 128.68 804.2 146.68"/>
    <path class="cls-1" d="m84.57,180.2c3.91-13.68,7.7-28.18,12.25-42.44,2.59-8.11,7.59-14.92,14.96-19.65,11.6-7.44,23.83-3.47,29.18,9.28,3.4,8.12,3.3,16.58,3.11,25.11-.09,4.11-.02,8.23-.02,13.07,2.93-6.12,5.49-11.7,8.26-17.18,4.87-9.65,12.27-16.3,22.98-18.89,10.8-2.62,19.51,2.77,22.15,13.54,2.03,8.27.58,16.44-.46,24.6-3.01,23.66-5.3,47.46-5.32,71.34-.02,20.8,6.18,40.66,20.11,56.49,7.4,8.41,17.84,17.28,28.72,20.61,8.03,2.45,16.67,2.79,24.96,1.67,5.15-.7,10.11-2.43,14.88-4.42,2.24-.93,4.86-1.77,6.91-3.08,1.61-1.03,1.56-.57.65-2.24-.41-.76-1.13-1.48-1.69-2.14-4.74-5.7-8-12.09-9.03-19.49-1.82-13.09,4.32-22.74,16.94-26.76,7.8-2.48,15.53-2.36,23.12.76,10.92,4.48,15.5,15.57,9.77,25.89-3.21,5.78-8.25,10.55-12.55,15.71-1.09,1.31-2.5,2.35-4.68,4.36,5.22,2.58,9.56,5.29,14.26,6.95,17.67,6.24,35.45,4.76,52.57-1.6,18.27-6.79,36.02-14.96,54.05-22.39,23.13-9.53,46.3-18.98,70.82-24.47,21.9-4.9,43.6-5.45,64.9,3.15,25.75,10.4,31.14,39.9,10.69,58.75-8.54,7.88-18.72,12.37-29.94,14.67-2.09.43-4.57.25-6.58-.47-3.79-1.36-4.14-5.32-.75-7.51,1.63-1.05,3.66-1.52,5.55-2.16,14.19-4.85,23.05-22.35,18.46-36.61-2.21-6.87-6.88-11.37-13.47-14.22-12.1-5.23-24.66-6.24-37.5-4.22-26.64,4.19-51.56,14.06-76.48,23.8-18.52,7.23-36.74,15.24-55.4,22.09-17.98,6.6-36.67,8.82-55.74,5.37-8.69-1.57-17.02-4.37-24.37-9.3-3.44-2.31-5.95-2.04-9.43-.13-13.03,7.19-26.94,11.58-42.01,10.42-30.22-2.32-53.04-15.75-66.77-43.75-7.22-14.72-9.4-30.2-10.04-46.14-.96-24.09,1.86-47.95,4.47-71.83.69-6.28,1.03-12.73.41-18.99-.6-6.07-5.08-7.42-10-3.63-6.02,4.62-8.75,11.45-11.74,18.05-6.62,14.63-9.25,30.32-11.92,45.98-.9,5.29-1.51,10.65-1.83,16-.25,4.1-2.5,6.21-6.02,7.1-2.12.54-4.48.59-6.66.32-4.55-.57-6.63-3.06-6.54-7.57.3-15.76.85-31.51.93-47.27.07-13.24-.24-26.48-.66-39.72-.11-3.47-1.04-7.58-4.97-8.5-3.95-.93-6.15,2.61-8.21,5.43-5.34,7.3-8.33,15.71-10.41,24.34-5.47,22.72-10.56,45.53-15.81,68.31-1.15,4.99-2.48,9.95-3.53,14.96-.64,3.09-2.5,4.98-5.33,5.66-2.64.63-5.44,1.04-8.13.89-5.84-.33-8.05-2.83-7.65-8.67,2.05-29.82,4.2-59.63,6.33-89.43.62-8.61,1.35-17.2,1.97-25.81.37-5.17,2.63-7.54,7.8-7.45,6.21.1,11.28,2.34,10.9,10.53-.73,15.99-.99,32-1.43,48-.05,1.98,0,3.96,0,4.92Zm219.79,117.75c4.32-4.24,8.52-8.71,9.84-14.69.66-2.99-.02-6.71-1.28-9.58-1.45-3.29-5.23-3.34-7.88-.82-5.79,5.5-6.27,18.8-.68,25.09Z"/>
    <path class="cls-1" d="m498.86,184.98c-2.88,6.33-5.37,12.18-8.16,17.88-5.45,11.13-11.01,22.23-19.93,31.14-9.38,9.37-20.93,6.65-25.03-5.99-3.82-11.78-3.19-23.96-2.68-36.1.22-5.35.5-10.69-.06-16.2-1.32,3.67-2.61,7.36-3.96,11.02-5.11,13.86-10.49,27.62-18.82,39.95-2.15,3.18-4.71,6.2-7.55,8.79-7.09,6.48-17.48,4.96-21.34-3.86-2.74-6.26-4.5-13.42-4.68-20.22-.39-14.85.65-29.74.84-44.62.15-11.74,0-23.49-.26-35.23-.06-2.92-.46-7.09-3.75-7.32-2.09-.15-5.04,2.83-6.57,5.1-6.43,9.55-9.84,20.46-13.07,31.39-6.91,23.41-12.65,47.09-16.35,71.24-.51,3.31-1.96,5.65-5.26,6.55-3.61.98-7.42,1.38-10.26-1.4-1.28-1.26-1.92-3.82-1.83-5.74.75-16.11,1.73-32.21,2.65-48.32.08-1.48.17-2.95.25-4.43l-.89-.18c-.45,1.2-.91,2.39-1.33,3.6-5.41,15.74-10.95,31.45-19.56,45.8-2.81,4.67-6.17,9.16-10,13.03-7.2,7.29-17.45,5.4-22.14-3.77-3.8-7.43-4.46-15.56-4.72-23.72-.11-3.59-.02-7.2-.8-11.08-.57,1.13-1.17,2.25-1.7,3.4-4.28,9.35-8.98,18.43-15.82,26.25-9.71,11.11-22.62,10.66-31.33-1.32-6.33-8.71-8.54-18.89-9.27-29.33-1.74-25.08,4.11-48.21,19.17-68.59,5.46-7.39,12.38-13.07,21.89-14.72,9.78-1.7,16.91,1.64,21.63,10.26.35.64.75,1.26,1.74,2.92.73-4.76,1.43-8.47,1.84-12.21.32-2.85,1.22-5.6,4.19-5.91,3.03-.31,6.31-.07,9.29.59,4.38.96,1.88,8.85,1.57,11.73-.64,5.86-1.31,11.72-1.97,17.57-1.33,11.71-2.62,23.42-3.52,35.17-.11,1.41-.21,2.82-.31,4.23-.56,8.17-.55,16.38-.39,24.56.08,4.1.19,8.19.29,12.29.11,4.54.16,8.35,2.88,12.63.82,1.28,2.14,2.2,3.66,2.31,3.59.26,5.48-3.77,7.06-6.32,5.65-9.09,9.41-19.25,13.53-29.08,4.13-9.87,7.94-19.88,11.27-30.05.24-.74.48-1.48.71-2.22,1.7-5.35,3.33-10.72,4.86-16.12,1.48-5.11,1.04-10.82,1.35-16.22.43-7.57.75-15.15.68-22.73-.07-7.69,1.37-10.36,6.37-10.46,5.64-.12,8.88,3.13,8.76,9.17-.4,20.63-.91,41.27-1.36,61.9-.05,2.11,0,4.22.61,6.48.7-2.81,1.37-5.63,2.1-8.43,3.77-14.53,7.08-29.28,15.52-42.01,3-4.52,6.68-8.86,10.87-12.26,9.62-7.79,18.76-4.66,22.55,7.08,2.84,8.79,2.31,17.83,2.01,26.81-.62,18.25-1.82,36.47-2.25,54.72-.15,6.3,1.02,12.69,2.15,18.93.39,2.15,2.28,5.34,3.89,5.61,1.74.29,4.59-1.87,5.83-3.71,3.6-5.39,7.05-10.95,9.8-16.81,9.6-20.42,17.02-41.7,22.68-63.5,2.62-10.1,3.23-20.74,4.6-31.15.37-2.84,1.17-5.61,4.07-6.04,3.43-.52,7.07-.24,10.51.33.65.11,1.29,3.25,1.11,4.91-2.51,24-5.63,47.96-7.56,72-.92,11.51.27,23.19.69,34.79.08,2.19.84,4.43,1.66,6.5,1.53,3.9,4.08,4.7,6.74,1.55,4.08-4.84,8.26-9.89,10.98-15.53,7.67-15.86,14.94-31.92,21.66-48.21,2.13-5.16,2.04-11.25,2.88-16.92,1.46-9.9,2.8-19.81,4.28-29.71.94-6.32,9.35-9.78,14.38-5.75,1.05.84,1.5,3.13,1.33,4.65-.93,8.58-2.38,17.1-3.21,25.68-2.26,23.39-4.36,46.8-6.35,70.21-.29,3.38-.67,7.47,3.42,9.11,4.05,1.63,6.9-1.2,9.42-3.85,3.36-3.53,6.43-7.34,9.85-10.81.15-.16.33-.29.53-.41,1.77-1.07,4.06-.02,4.64,1.96.2.68.28,1.3.04,1.77-4.55,9.18-8.81,18.63-16.72,25.58-8.43,7.41-20.12,4.48-24.18-6-3.16-8.16-2.39-16.74-2.33-25.23.04-6.2,0-12.41,0-19.39Zm-264.91,11.6c.04,8.87.91,18.69,5.07,26.64.63,1.2,1.52,2.26,2.67,2.96,3.92,2.36,8.44.32,11.52-2.36,3.12-2.72,5.27-6.34,7.27-9.91,2.74-4.87,4.98-9.98,7.2-15.1,3.15-7.3,5.88-14.97,7.4-22.75,1.01-5.18,1.51-10.44,1.9-15.7.41-5.48,1.12-10.59-.31-16-1.32-4.98-3.89-9.65-7.48-13.36-2.16-2.23-4.77-4.18-7.81-4.83-7.63-1.63-12.45,7.42-15.29,13.12-6.37,12.81-9.53,26.86-11.01,41.02-.56,5.34-1.18,10.84-1.15,16.26Z"/>
    <path class="cls-1" d="m754.24,251.46c31.16,1.22,62.35,7.45,93.68,12.49,34.45,5.54,68.9,11.42,103.95,10.75,32.86-.63,60.78-12.31,81.33-38.84,8.41-10.86,13.79-23.17,15.43-36.93.26-2.22.27-4.52-.02-6.73-.94-7.11-9.92-13.55-16.42-8.63-1.3.98-2.38,2.21-3.49,3.41-.83.9-1.78,1.83-2.99,1.98-2.99.35-4.06-4.52-4.33-6.71-.34-2.74.16-5.54,1.27-8.06,2.22-5.07,7.01-9.11,12.65-9.51,7.94-.56,14.33,3.31,17.93,11,4.19,8.94,4.32,18.41,3.26,27.95-5,44.97-40.58,79.76-84.52,86.92-16.91,2.75-33.9,2.06-50.88.73-33.83-2.63-67.14-8.96-100.59-14.29-22.7-3.62-45.41-7.54-68.49-7.91-16.94-.27-33.51,1.5-48.54,10.26-7.38,4.3-13.72,9.65-16.7,18.06-3.67,10.35-.08,19.85,9.89,24.48,12.6,5.85,25.24,5.38,37.46-1.35,3.02-1.66,5.63-3.98,7.72-6.72,2.08-2.73,2.98-7.21,7.33-5.73,5.86,1.99,2.78,11.47.66,15.21-8.1,14.35-21.05,20.25-36.88,20.09-21.28-.22-35.34-14.72-35.88-36.27-.57-22.84,9.07-38.09,29.94-47.29,14.84-6.54,30.58-8.07,47.24-8.34Z"/>
    <path class="cls-1" d="m1117.28,221.96c4.76,3.9,9.06,7.65,13.59,11.06,6.59,4.96,13.81,5.63,21.41,2.77,14.14-5.3,24.1-25.54,8.61-40.18-9.35-8.84-19.68-16.54-30.07-25.16-1.02,2.08-1.61,3.19-2.12,4.35-6.35,14.34-12.51,28.77-19.16,42.96-2.03,4.32-5.1,8.25-8.25,11.83-6.42,7.31-14.42,10.43-23.86,7.75-9.7-2.75-15.98-9.48-17.96-19.65-1.27-6.52-1.55-13.36-1.46-20.04.14-10.26,1.95-20.52-.28-30.76-.13-.6-.23-1.2-.38-1.8-3.04-11.91-10.95-19.1-20.83-18.91-10.99.21-20.4,8.61-22.83,20.34-1.37,6.63-.91,13.15.92,19.61,1.15,4.05.41,5.04-3.65,4.85-7.24-.33-10.01-2.75-11.88-10.4-4.96-20.23,5.55-38.49,24.68-42.18,9.95-1.92,19.61-.09,28.73,4.64,14.75,7.65,20.51,20.9,20.86,37.19.15,7.03-.34,14.06-.49,21.09-.12,6.08-.61,13.7,2.02,19.32,1.81,3.86,6.31,6.85,10.42,5.13,2.28-.95,3.7-3.36,5.16-5.31,2.95-3.96,4.86-8.26,6.89-12.76,2.16-4.76,4.29-9.53,6.42-14.3,4.25-9.55,8.43-19.13,12.59-28.73.62-1.44,1.25-2.88,1.87-4.32.64-1.48.12-3.8-.44-5.52-3.05-9.32-4.84-18.7-1.97-28.44,3.3-11.19,15.33-16.69,25.25-11.17,2.12,1.18,3.99,3.9,4.81,6.33,1.72,5.07,1.49,10.45-.46,15.48-1.58,4.07-3.33,8.14-5.61,11.81-2.02,3.25-1.45,5.28,1.29,7.32,4.5,3.32,8.83,6.91,13.45,10.03,13.31,8.98,19.36,22.08,20.6,38.17,1.08,14.03-2.26,26.59-11.43,36.97-1.71,1.94-3.56,3.76-5.55,5.42-6.69,5.57-14.86,8.92-23.56,9.47-8.82.56-19.59-.98-26.9-6.23-1.66-1.19-3.5-2.98-2.92-5.15.69-2.58,2.86-5.37,4.13-7.72.72-1.33,8.68-14.86,8.34-15.15Zm13.34-79.37c3.58-2.65,6.55-11.3,5.3-15.14-.84-2.57-2.7-3.55-5.2-3.33-2.13.19-3.99.91-4.22,3.5-.51,5.54.9,10.52,4.12,14.97Z"/>
    <path class="cls-1" d="m706.67,181.53c1.63-7.77,2.96-15.62,4.99-23.29,1.88-7.1,4.01-14.24,7.02-20.91,1.89-4.18,5.12-8.09,8.62-11.13,8.3-7.19,18.1-4.91,22.95,4.92,3.47,7.02,4.17,14.59,4.02,22.31-.1,4.84-.02,9.69-.02,15.49,2.84-6.51,5.19-12.23,7.82-17.82,2.67-5.68,6.7-10.27,12.25-13.31,8.86-4.86,17.32-2.11,20.57,7.47,1.89,5.57,2.74,11.72,2.83,17.63.02,1.69.04,3.37.04,5.06.03,8.88-.16,17.75-.28,26.62-.12,8.54.47,17.26.95,25.81.22,3.91.48,7.81.78,11.71.22,2.81.92,5.68,3.84,6.95,3.72,1.62,7.17-1.79,9.81-3.94,2.22-1.8,4.33-3.73,6.34-5.76,1.85-1.88,3.54-4.03,6.02-5.13.48-.23,1.02-.42,1.52-.27.53.16.88.67,1.06,1.19.52,1.46-.1,3.28-.99,4.49-5.77,7.87-12.48,14.78-22.39,17.28-8.49,2.14-14.89-.66-17.77-8.89-2.28-6.53-3.97-13.55-4.28-20.43-.83-18.48-.72-37-1.12-55.5-.07-3.35-.4-6.78-1.25-10-1.3-4.9-4.52-5.61-7.78-1.7-2.21,2.65-4.01,5.74-5.51,8.87-7.35,15.32-10.1,31.86-12.51,48.47-.84,5.81-1.24,11.68-1.9,17.51-.53,4.63-3.72,6.79-9.24,6.38-4.23-.32-6.52-3.12-6.44-7.62.43-24.26.91-48.51,1.12-72.77.04-4.19-.74-8.49-1.84-12.54-1.15-4.24-4.69-4.96-7.1-1.34-3.02,4.52-6.16,9.38-7.46,14.54-4.5,17.8-8.34,35.77-12.19,53.72-2.46,11.49-4.47,23.07-6.75,34.6-1.24,6.27-10.86,9.37-15.53,4.9-1.09-1.04-1.75-3.12-1.68-4.68,1.06-21.48,2.19-42.95,3.51-64.42.92-14.98,2.16-29.94,3.21-44.91.33-4.78,2.24-6.88,6.52-6.87,5.12,0,8.51,2.83,8.45,7.45-.19,15.13-.52,30.25-.78,45.38-.03,1.47,0,2.94,0,4.42.19.02.38.03.57.05Z"/>
    <path class="cls-1" d="m1046.43,101.71c8.34.07,15.09,6.87,15,15.11-.09,8.31-6.89,15-15.19,14.96-8.34-.05-14.95-6.76-14.9-15.15.05-8.4,6.71-14.98,15.09-14.91Z"/>
    <path class="cls-1" d="m1014.1,218.25c-1.56-.43-3.17-.74-4.78-.87-2.87-.22-4.62.84-5.21,4.02-.96,5.14-4.08,9.06-8.18,12.18-3.5,2.66-7.97,2.43-11.38-.42-3.41-2.86-4.76-6.68-5.05-10.92-.82-11.91,1.74-23.4,4.81-34.76,2.71-10.01,6.4-19.77,8.64-29.87,2.32-10.41.25-12.84-9.7-16.39-8.82-3.15-17.5-6.69-26.26-10.03-2.47-.94-3.35-2.57-3.83-5.29-1.2-6.86-2.7-13.71-4.77-20.35-1.81-5.8-7.58-9.49-13.16-9.51-5-.02-8.29,2.76-8.21,7.71.06,3.68.59,7.51,1.75,10.99,2.81,8.41,8.17,15.25,15.17,20.52,3.58,2.69,4.17,5.52,3.56,9.63-2.46,16.57-8.11,32.21-13.87,47.79l-.08.21c-1.05,2.83-2.09,5.67-3.18,8.49-1.01,2.6-2.21,4.94-3.43,7.4-4.73,9.52-9.03,19.63-17.13,26.85-.92.82-2.01,1.65-3.24,1.61-1.43-.05-2.56-1.26-3.24-2.52-1.28-2.36-1.62-5.12-1.83-7.8-.52-6.48-.25-12.97-.39-19.46-.14-6.65-.12-13.31.33-19.95.63-9.16,1.52-18.31,2.5-27.44,1.24-11.49,2.39-23.02,3.8-34.49.43-3.52,1.31-6.08-2.9-7.19-2.71-.71-5.73-.45-8.45-.18-2.97.3-3.87,3.05-4.19,5.91-.42,3.74-1.11,7.45-1.84,12.21-.99-1.67-1.39-2.28-1.74-2.92-4.73-8.61-11.85-11.96-21.63-10.26-9.5,1.65-16.43,7.33-21.89,14.72-15.06,20.38-20.91,43.5-19.17,68.59.73,10.44,2.93,20.62,9.27,29.33,8.71,11.99,21.62,12.43,31.33,1.32,6.84-7.83,11.55-16.9,15.82-26.25.53-1.15,1.13-2.27,1.7-3.4.78,3.88.68,7.49.8,11.08.26,8.16.91,16.29,4.72,23.72,4.69,9.16,14.94,11.06,22.14,3.77,10.02-10.14,15.7-23.31,21.35-36.16,6.12-13.93,11.06-28.36,14.96-43.05,1.38-5.17,2.62-10.38,3.75-15.61.6-2.77.94-5.59,1.49-8.89,3.98,2.01,7.52,3.78,11.04,5.58,7.51,3.83,8.21,5.22,6.86,13.56-.12.74-.32,1.47-.53,2.18-2.78,9.6-5.7,19.17-8.33,28.82-3.42,12.52-3.51,25.01,1.52,37.17,3.7,8.94,10.21,14.8,20.07,16.05,13.95,1.77,28.14-9.88,32.82-22.25.99-2.61.04-4.44-2.64-5.18Zm-126.65-52.7c-.4,5.26-.89,10.52-1.9,15.7-1.52,7.78-4.24,15.45-7.4,22.75-2.21,5.12-4.46,10.24-7.2,15.1-2.01,3.57-4.15,7.19-7.27,9.91-3.08,2.68-7.6,4.72-11.52,2.36-1.53-.92-2.51-2.54-3.27-4.16-3.65-7.73-4.43-17.01-4.47-25.43-.02-5.42.6-10.92,1.15-16.26,1.47-14.16,4.63-28.22,11.01-41.02,2.84-5.7,7.66-14.75,15.29-13.12,3.04.65,5.65,2.59,7.81,4.83,3.59,3.71,6.16,8.37,7.48,13.36,1.43,5.41.72,10.52.31,16Zm59.13-41.25c-.7,0-1.56-.62-2.05-1.08-1.71-1.61-3.41-3.16-4.79-5.08-1.85-2.57-3.14-5.5-3.84-8.58-.41-1.81-1.34-4.73.62-5.94,2.39-1.47,4.01,1.19,5.07,2.89,2.95,4.72,4.11,10.07,5.8,15.32.15.47.3.97.2,1.46-.17.74-.55,1.01-1,1.01Z"/>
    <path class="cls-1" d="m557.35,211.89c4.5,4.59,8.3,9.01,12.68,12.81,7.63,6.62,16.58,7.57,25.79,3.79,9.23-3.8,15.16-10.51,16.14-20.62.7-7.22-2.12-13.44-7.24-18.29-9.35-8.86-19.12-17.31-28.72-25.92-1.2-1.08-2.47-2.09-4.15-3.5-2.66,4-5.37,7.61-7.55,11.51-1.72,3.08-3.72,4.12-7.09,2.81-1.59-.62-3.32-.9-5.69-1.51,3.68-5.37,6.78-10.37,10.38-14.99,2.86-3.67,3.72-6.97,2.13-11.63-2.95-8.66-3.63-17.64-.59-26.56,4.3-12.64,13.85-15.63,26.28-12.04,5.27,1.52,7.68,6.17,7.45,12.62-.27,7.72-3.7,14.2-8.2,20.26-4.17,5.62-4.29,5.72,1.03,10.6,3.91,3.59,8.07,6.92,12.26,10.2,10.95,8.59,16.16,19.89,17.38,33.4,1.94,21.61-8.54,41.13-27.56,49.25-16.15,6.9-32,5.25-46.89-3.76-5.58-3.38-5.45-4.21-1.74-9.32,4.43-6.11,8.89-12.2,13.93-19.11Zm21.41-76.12c4.12-4.37,6.7-8.8,6.61-14.35-.05-3-2.04-4.43-5.02-4.56-3.02-.13-4.92,1.14-5.19,4.24-.42,4.97.42,9.67,3.59,14.67Z"/>
  </g>
</svg>